<svg xmlns="http://www.w3.org/2000/svg" xmlns:xlink="http://www.w3.org/1999/xlink" width="42" height="42" viewBox="0 0 42 42">
  <defs>
    <clipPath id="clip-icon-github">
      <rect width="42" height="42"/>
    </clipPath>
  </defs>
  <g id="icon-github" clip-path="url(#clip-icon-github)">
    <path id="Path_9" data-name="Path 9" d="M25.626,5.343a20.846,20.846,0,0,0-6.589,40.624c1.042.191,1.423-.453,1.423-1,0-.5-.019-2.14-.03-3.88-5.8,1.26-7.021-2.458-7.021-2.458a5.527,5.527,0,0,0-2.315-3.049c-1.9-1.293.143-1.267.143-1.267a4.38,4.38,0,0,1,3.2,2.148c1.86,3.187,4.881,2.265,6.066,1.73A4.452,4.452,0,0,1,21.823,35.4c-4.626-.526-9.494-2.315-9.494-10.3a8.074,8.074,0,0,1,2.144-5.594,7.505,7.505,0,0,1,.206-5.518s1.748-.559,5.732,2.137a19.73,19.73,0,0,1,10.435,0c3.976-2.7,5.728-2.137,5.728-2.137a7.482,7.482,0,0,1,.208,5.516A8.044,8.044,0,0,1,38.924,25.1c0,8.008-4.875,9.771-9.519,10.288a4.966,4.966,0,0,1,1.414,3.857c0,2.787-.028,5.033-.028,5.721,0,.556.379,1.2,1.434,1a20.849,20.849,0,0,0-6.6-40.624Z" transform="translate(-4.281 -4.843)" stroke="#000" stroke-width="0"/>
  </g>
</svg>
