<svg xmlns="http://www.w3.org/2000/svg" xmlns:xlink="http://www.w3.org/1999/xlink" width="436" height="223" viewBox="0 0 436 223">
  <defs>
    <clipPath id="clip-Home_4">
      <rect width="436" height="223"/>
    </clipPath>
  </defs>
  <g id="Home_4" data-name="Home – 4" clip-path="url(#clip-Home_4)">
    <g id="Group_2" data-name="Group 2" transform="translate(-454.967 -314.919)">
      <path id="Path_7" data-name="Path 7" d="M47.229,6.3V46.71H69.89V3.986q0-11.98-5.629-18.62t-18.042-6.64a23.345,23.345,0,0,0-12.341,3.031,21.38,21.38,0,0,0-7.866,8.516v-9.959H4.071v66.4h21.94V6.3a14.1,14.1,0,0,1,1.443-6.64A9.983,9.983,0,0,1,31.5-4.53a12.281,12.281,0,0,1,6.062-1.443q5.2,0,7.433,3.175T47.229,6.3Zm27.136,7.217A33.408,33.408,0,0,0,79.272,31.7,33.193,33.193,0,0,0,92.84,43.824a42.969,42.969,0,0,0,19.486,4.33,42.519,42.519,0,0,0,19.414-4.33A33.812,33.812,0,0,0,145.307,31.7a33.043,33.043,0,0,0,4.98-18.187,33.308,33.308,0,0,0-4.98-18.331,33.812,33.812,0,0,0-13.568-12.125,42.519,42.519,0,0,0-19.414-4.33,42.968,42.968,0,0,0-19.486,4.33A33.193,33.193,0,0,0,79.272-4.819,33.678,33.678,0,0,0,74.364,13.512Zm22.373,0A17.611,17.611,0,0,1,98.9,4.563a15.459,15.459,0,0,1,5.629-5.774,15.9,15.9,0,0,1,15.517,0,14.774,14.774,0,0,1,5.629,5.774,18.1,18.1,0,0,1,2.093,8.949,17.687,17.687,0,0,1-2.093,8.877,14.906,14.906,0,0,1-5.629,5.7,15.9,15.9,0,0,1-15.517,0,15.61,15.61,0,0,1-5.629-5.7A17.214,17.214,0,0,1,96.737,13.512Zm49.941-33.2V-1.643h44.457V-19.686ZM158.37-42.78V46.71H179.3V-42.78Zm66.974,90.934q12.7,0,21.579-4.908A35.008,35.008,0,0,0,261,28.524L241.509,23.76a16.094,16.094,0,0,1-6.567,6.5,20.98,20.98,0,0,1-9.887,2.165,15.377,15.377,0,0,1-8.516-2.237,13.516,13.516,0,0,1-5.2-6.567,27.969,27.969,0,0,1-1.732-10.392,33.69,33.69,0,0,1,1.8-11.042,13.007,13.007,0,0,1,4.98-6.567,14.754,14.754,0,0,1,8.227-2.165,12.934,12.934,0,0,1,6.784,1.732A11.651,11.651,0,0,1,235.88.089a16.6,16.6,0,0,1,1.588,7.506,8.312,8.312,0,0,1-.505,2.526,9.5,9.5,0,0,1-1.227,2.526l5.2-6.64H199.94V18.131h60.623a9.352,9.352,0,0,0,.289-2.526V12.5q0-10.681-4.186-18.187A27.708,27.708,0,0,0,244.541-17.16q-7.939-3.969-19.486-3.969t-19.991,4.186a29.7,29.7,0,0,0-12.918,11.98,36.488,36.488,0,0,0-4.475,18.475,35.292,35.292,0,0,0,4.619,18.331A31.061,31.061,0,0,0,205.352,43.9Q213.8,48.154,225.343,48.154Z" transform="translate(610.63 416.282)"/>
      <path id="Subtraction_3" data-name="Subtraction 3" d="M.021,221.506.008,221.5c11.2-34.486,16.875-71.743,16.875-110.738S11.2,34.492,0,0A154.746,154.746,0,0,1,33.979,49.68,154.242,154.242,0,0,1,46.454,110.76a154.273,154.273,0,0,1-12.475,61.084A154.786,154.786,0,0,1,.021,221.506Z" transform="matrix(-0.819, 0.574, -0.574, -0.819, 625.463, 506.853)"/>
      <path id="Subtraction_4" data-name="Subtraction 4" d="M.021,221.5.009,221.5c11.2-34.486,16.876-71.743,16.876-110.738S11.2,34.491,0,0A154.734,154.734,0,0,1,33.981,49.68a154.249,154.249,0,0,1,12.475,61.08,154.277,154.277,0,0,1-12.475,61.084A154.78,154.78,0,0,1,.021,221.5Z" transform="matrix(-0.809, -0.588, 0.588, -0.809, 492.55, 531.426)"/>
    </g>
  </g>
</svg>
