<svg xmlns="http://www.w3.org/2000/svg" width="283.483" height="153.186" viewBox="0 0 283.483 153.186">
  <g id="Group_6" data-name="Group 6" transform="translate(-554.341 -306.371)">
    <path id="Path_7" data-name="Path 7" d="M36.163-6.288V23.765H53.014V-8.005q0-8.908-4.186-13.846T35.411-26.788a17.359,17.359,0,0,0-9.177,2.254A15.9,15.9,0,0,0,20.385-18.2v-7.406H4.071V23.765H20.385V-6.288a10.484,10.484,0,0,1,1.073-4.937,7.423,7.423,0,0,1,3.005-3.113,9.132,9.132,0,0,1,4.508-1.073q3.864,0,5.527,2.361A11.651,11.651,0,0,1,36.163-6.288ZM56.341-.921A24.842,24.842,0,0,0,59.99,12.6a24.682,24.682,0,0,0,10.089,9.016,31.951,31.951,0,0,0,14.49,3.22A31.617,31.617,0,0,0,99,21.618,25.142,25.142,0,0,0,109.093,12.6,24.57,24.57,0,0,0,112.8-.921a24.768,24.768,0,0,0-3.7-13.631A25.142,25.142,0,0,0,99-23.568a31.617,31.617,0,0,0-14.436-3.22,31.951,31.951,0,0,0-14.49,3.22A24.683,24.683,0,0,0,59.99-14.552,25.043,25.043,0,0,0,56.341-.921Zm16.636,0a13.1,13.1,0,0,1,1.61-6.654,11.5,11.5,0,0,1,4.186-4.293,11.289,11.289,0,0,1,5.8-1.5,11.374,11.374,0,0,1,5.742,1.5A10.986,10.986,0,0,1,94.5-7.576,13.457,13.457,0,0,1,96.053-.921a13.152,13.152,0,0,1-1.556,6.6,11.084,11.084,0,0,1-4.186,4.24,11.374,11.374,0,0,1-5.742,1.5,11.289,11.289,0,0,1-5.8-1.5,11.608,11.608,0,0,1-4.186-4.24A12.8,12.8,0,0,1,72.977-.921Zm37.136-24.686v13.416h33.058V-25.607Zm8.694-17.173V23.765H134.37V-42.78Zm49.8,67.618q9.445,0,16.046-3.649a26.032,26.032,0,0,0,10.465-10.948L180.629,6.7a11.968,11.968,0,0,1-4.883,4.83,15.6,15.6,0,0,1-7.352,1.61,11.434,11.434,0,0,1-6.332-1.664A10.05,10.05,0,0,1,158.2,6.592a20.8,20.8,0,0,1-1.288-7.728,25.052,25.052,0,0,1,1.342-8.211,9.672,9.672,0,0,1,3.7-4.883,10.971,10.971,0,0,1,6.118-1.61,9.618,9.618,0,0,1,5.045,1.288,8.664,8.664,0,0,1,3.327,3.649,12.343,12.343,0,0,1,1.181,5.581,6.181,6.181,0,0,1-.376,1.878,7.068,7.068,0,0,1-.912,1.878L180.2-6.5H149.718V2.513H194.8a6.954,6.954,0,0,0,.215-1.878V-1.673A27.383,27.383,0,0,0,191.9-15.2a20.6,20.6,0,0,0-9.016-8.533,32.176,32.176,0,0,0-14.49-2.952,33.119,33.119,0,0,0-14.865,3.113,22.086,22.086,0,0,0-9.606,8.908A27.132,27.132,0,0,0,140.595-.921a26.243,26.243,0,0,0,3.435,13.631,23.1,23.1,0,0,0,9.713,8.962A32.646,32.646,0,0,0,168.608,24.838Z" transform="translate(642.706 384.906)" fill="#fff"/>
    <path id="Union_2" data-name="Union 2" d="M-2971.782-2263.181a114.331,114.331,0,0,1,14-34.423,114.291,114.291,0,0,1-10.428-29.291,115.077,115.077,0,0,1-.5-44.734h.011a258.694,258.694,0,0,0,24.745,55.7,114.3,114.3,0,0,1,25.564-20.746,115.088,115.088,0,0,1,42.135-15.033l0,.01a264.43,264.43,0,0,0-55.352,54.92,266.151,266.151,0,0,0,57.38,60.06,115.051,115.051,0,0,1-41.886-15.769,114.336,114.336,0,0,1-28.69-25.3,260.182,260.182,0,0,0-28.257,59.34A115.071,115.071,0,0,1-2971.782-2263.181Z" transform="translate(3529 2678)" fill="#fff"/>
  </g>
</svg>
